<svg width="17" height="20" viewBox="0 0 17 20" fill="none" xmlns="http://www.w3.org/2000/svg">
<path d="M5.73255 10.4876C5.06236 11.1693 4.26687 11.4957 3.46608 11.4177C2.66528 11.3398 1.90262 10.8616 1.29312 10.0553C0.683632 9.24902 0.260371 8.1584 0.0871854 6.94795C-0.0859998 5.73749 0.000284672 4.47285 0.333023 3.34479C0.665762 2.21673 1.22691 1.28643 1.93182 0.694223C2.63672 0.102016 3.44716 -0.119978 4.24088 0.0617255C5.0346 0.243429 5.76855 0.818976 6.33201 1.70155C6.89548 2.58412 7.25791 3.72585 7.36462 4.95451C7.70213 7.51605 7.83344 10.5947 7.17321 13.382C6.46491 16.3678 4.89479 18.8165 2.08282 19.9537C1.8485 20.0369 1.60241 19.9758 1.39675 19.7834C1.19109 19.591 1.04203 19.2823 0.981171 18.923C0.920314 18.5636 0.95245 18.1817 1.07076 17.8584C1.18908 17.535 1.38426 17.2955 1.61493 17.1907C3.88966 16.2707 4.95305 14.4335 5.43666 12.3991C5.57998 11.7919 5.67707 11.1505 5.73255 10.4876Z" fill="#08164A"/>
<path d="M14.9796 10.4876C14.3094 11.1693 13.5139 11.4957 12.7131 11.4177C11.9124 11.3398 11.1497 10.8616 10.5402 10.0553C9.9307 9.24902 9.50744 8.1584 9.33426 6.94795C9.16107 5.73749 9.24735 4.47285 9.58009 3.34479C9.91283 2.21673 10.474 1.28643 11.1789 0.694223C11.8838 0.102016 12.6942 -0.119978 13.488 0.0617255C14.2817 0.243429 15.0156 0.818976 15.5791 1.70155C16.1426 2.58412 16.505 3.72585 16.6117 4.95451C16.9492 7.51605 17.0805 10.5947 16.4203 13.382C15.712 16.3678 14.1419 18.8165 11.3299 19.9537C11.0956 20.0369 10.8495 19.9758 10.6438 19.7834C10.4382 19.591 10.2891 19.2823 10.2282 18.923C10.1674 18.5636 10.1995 18.1817 10.3178 17.8584C10.4361 17.535 10.6313 17.2955 10.862 17.1907C13.1367 16.2707 14.2001 14.4335 14.6837 12.3991C14.8271 11.7919 14.9241 11.1505 14.9796 10.4876Z" fill="#08164A"/>
</svg>
