<svg width="23" height="23" viewBox="0 0 23 23" fill="none" xmlns="http://www.w3.org/2000/svg">
<path d="M17.6094 0H5.39062C2.41347 0 0 2.41347 0 5.39062V17.6094C0 20.5865 2.41347 23 5.39062 23H17.6094C20.5865 23 23 20.5865 23 17.6094V5.39062C23 2.41347 20.5865 0 17.6094 0Z" fill="white"/>
<path d="M17.6094 0H5.39062C2.41347 0 0 2.41347 0 5.39062V17.6094C0 20.5865 2.41347 23 5.39062 23H17.6094C20.5865 23 23 20.5865 23 17.6094V5.39062C23 2.41347 20.5865 0 17.6094 0Z" fill="#1D9BF0"/>
<path d="M17.9303 8.21271C17.9402 8.35529 17.9402 8.49787 17.9402 8.6418C17.9402 13.0259 14.6027 18.0821 8.49985 18.0821V18.0795C6.69697 18.0821 4.93144 17.5657 3.41406 16.5921C3.67623 16.6236 3.93965 16.6393 4.20379 16.64C5.69804 16.6411 7.1493 16.14 8.32438 15.2169C7.63204 15.2038 6.9611 14.9747 6.40536 14.5616C5.84961 14.1485 5.43685 13.5721 5.22477 12.9129C5.72186 13.0087 6.23431 12.9892 6.72265 12.8558C5.17482 12.543 4.06121 11.183 4.06121 9.60358V9.56154C4.52264 9.81854 5.03905 9.96096 5.56699 9.97679C4.10918 9.00244 3.65979 7.06298 4.54007 5.54659C5.37304 6.57162 6.41232 7.40996 7.5904 8.00715C8.76849 8.60434 10.059 8.94703 11.3782 9.01295C11.2466 8.44679 11.2661 7.85602 11.4345 7.29972C11.6029 6.74342 11.9145 6.2411 12.338 5.84299C13.6743 4.58679 15.776 4.65121 17.0322 5.98683C17.7752 5.84013 18.4878 5.56774 19.1391 5.18138C18.8915 5.9496 18.3731 6.60169 17.6806 7.01635C18.3383 6.93886 18.9806 6.7628 19.5859 6.49408C19.1407 7.1609 18.58 7.74284 17.9303 8.21271Z" fill="white"/>
</svg>
