<svg width="36" height="36" viewBox="0 0 36 36" fill="none" xmlns="http://www.w3.org/2000/svg">
<path d="M36 17.9685C36 8.04484 27.9411 0 18 0C8.05894 0 0 8.0447 0 17.9685C0 26.9371 6.58237 34.3708 15.1875 35.7188V23.1625H10.6172V17.9685H15.1875V14.0098C15.1875 9.50647 17.8748 7.01895 21.9863 7.01895C23.9558 7.01895 26.0156 7.3699 26.0156 7.3699V11.7918H23.7459C21.5097 11.7918 20.8125 13.177 20.8125 14.598V17.9685H25.8047L25.0066 23.1625H20.8125V35.7188C29.4176 34.3708 36 26.9372 36 17.9685Z" fill="#1877F2"/>
<path d="M25.0066 23.2031L25.8047 18H20.8125V14.6236C20.8125 13.1999 21.5099 11.8125 23.7459 11.8125H26.0156V7.38281C26.0156 7.38281 23.9558 7.03125 21.9863 7.03125C17.8748 7.03125 15.1875 9.52313 15.1875 14.0344V18H10.6172V23.2031H15.1875V35.7813C16.1179 35.9271 17.0582 36.0002 18 36C18.9418 36.0003 19.8821 35.9272 20.8125 35.7813V23.2031H25.0066Z" fill="white"/>
</svg>
