<svg width="23" height="23" viewBox="0 0 23 23" fill="none" xmlns="http://www.w3.org/2000/svg">
<path d="M21.3031 8.70978e-05H1.69671C1.25185 -0.00444025 0.823369 0.167693 0.505278 0.478715C0.187186 0.789738 0.0054693 1.21425 0 1.65909V21.3447C0.0064584 21.7889 0.18861 22.2124 0.506594 22.5226C0.824578 22.8328 1.2525 23.0044 1.69671 22.9999H21.3031C21.748 23.0034 22.1762 22.8307 22.4941 22.5195C22.8121 22.2083 22.9939 21.7839 22.9998 21.339V1.65344C22.9919 1.20989 22.8092 0.787411 22.4915 0.477816C22.1738 0.168221 21.7467 -0.00346122 21.3031 8.70978e-05Z" fill="#0076B2"/>
<path d="M3.40452 8.61732H6.81867V19.6026H3.40452V8.61732ZM5.11254 3.15015C5.50412 3.15015 5.88691 3.26629 6.21248 3.48388C6.53805 3.70148 6.79176 4.01074 6.94153 4.37256C7.0913 4.73437 7.13039 5.13248 7.05385 5.51651C6.97732 5.90055 6.78861 6.25326 6.51158 6.53002C6.23456 6.80678 5.88167 6.99516 5.49756 7.07133C5.11345 7.14749 4.71538 7.10802 4.35371 6.95791C3.99204 6.8078 3.68302 6.55379 3.46573 6.22802C3.24845 5.90224 3.13267 5.51934 3.13305 5.12775C3.13355 4.60309 3.34232 4.10008 3.71349 3.72926C4.08466 3.35844 4.58787 3.15015 5.11254 3.15015ZM8.96029 8.61732H12.2331V10.1255H12.2783C12.7345 9.26207 13.8468 8.3515 15.5077 8.3515C18.9652 8.34396 19.6062 10.6194 19.6062 13.5698V19.6026H16.192V14.2579C16.192 12.9854 16.1694 11.3471 14.418 11.3471C12.6667 11.3471 12.3688 12.7347 12.3688 14.175V19.6026H8.96029V8.61732Z" fill="white"/>
</svg>
