<svg width="23" height="23" viewBox="0 0 23 23" fill="none" xmlns="http://www.w3.org/2000/svg">
<g clip-path="url(#clip0_5_103)">
<path d="M17.6092 0H5.39046C2.4133 0 -0.000167847 2.41347 -0.000167847 5.39062V17.6094C-0.000167847 20.5865 2.4133 23 5.39046 23H17.6092C20.5864 23 22.9998 20.5865 22.9998 17.6094V5.39062C22.9998 2.41347 20.5864 0 17.6092 0Z" fill="url(#paint0_radial_5_103)"/>
<path d="M17.6092 0H5.39046C2.4133 0 -0.000167847 2.41347 -0.000167847 5.39062V17.6094C-0.000167847 20.5865 2.4133 23 5.39046 23H17.6092C20.5864 23 22.9998 20.5865 22.9998 17.6094V5.39062C22.9998 2.41347 20.5864 0 17.6092 0Z" fill="url(#paint1_radial_5_103)"/>
<path d="M11.5006 2.51562C9.06066 2.51562 8.75439 2.52632 7.79611 2.56989C6.83964 2.61373 6.18674 2.76512 5.61552 2.9873C5.02452 3.21677 4.52329 3.52376 4.02393 4.02329C3.52413 4.52273 3.21714 5.02397 2.98696 5.6147C2.76414 6.1861 2.61258 6.83927 2.56954 7.79529C2.52669 8.75366 2.51546 9.06002 2.51546 11.5001C2.51546 13.9402 2.52624 14.2454 2.56972 15.2037C2.61375 16.1602 2.76513 16.8131 2.98714 17.3843C3.21678 17.9753 3.52377 18.4765 4.0233 18.9759C4.52257 19.4757 5.0238 19.7834 5.61435 20.0129C6.18602 20.2351 6.83901 20.3864 7.7953 20.4303C8.75367 20.4739 9.05968 20.4846 11.4996 20.4846C13.9398 20.4846 14.2451 20.4739 15.2034 20.4303C16.1598 20.3864 16.8135 20.2351 17.3851 20.0129C17.9759 19.7834 18.4764 19.4757 18.9756 18.9759C19.4754 18.4765 19.7823 17.9753 20.0125 17.3846C20.2334 16.8131 20.385 16.16 20.4299 15.2039C20.473 14.2456 20.4842 13.9402 20.4842 11.5001C20.4842 9.06002 20.473 8.75384 20.4299 7.79547C20.385 6.839 20.2334 6.18619 20.0125 5.61496C19.7823 5.02397 19.4754 4.52273 18.9756 4.02329C18.4758 3.52358 17.976 3.21659 17.3846 2.98739C16.8118 2.76512 16.1586 2.61364 15.2021 2.56989C14.2437 2.52632 13.9386 2.51562 11.4979 2.51562H11.5006ZM10.6947 4.1347C10.9339 4.13434 11.2008 4.1347 11.5006 4.1347C13.8996 4.1347 14.1838 4.14332 15.1311 4.18636C16.0071 4.22643 16.4826 4.37279 16.7993 4.49578C17.2186 4.65858 17.5175 4.85327 17.8318 5.16781C18.1462 5.48227 18.3408 5.78171 18.5041 6.20102C18.627 6.51727 18.7736 6.99272 18.8135 7.8687C18.8565 8.81583 18.8659 9.10027 18.8659 11.498C18.8659 13.8958 18.8565 14.1803 18.8135 15.1274C18.7734 16.0033 18.627 16.4788 18.5041 16.7951C18.3413 17.2144 18.1462 17.513 17.8318 17.8272C17.5173 18.1417 17.2187 18.3363 16.7993 18.4992C16.4829 18.6227 16.0071 18.7687 15.1311 18.8088C14.184 18.8518 13.8996 18.8612 11.5006 18.8612C9.10163 18.8612 8.81728 18.8518 7.87023 18.8088C6.99426 18.7684 6.5188 18.622 6.20184 18.499C5.78262 18.3361 5.48309 18.1415 5.16863 17.8271C4.85418 17.5126 4.65958 17.2139 4.49633 16.7944C4.37334 16.4781 4.2268 16.0026 4.18691 15.1266C4.14388 14.1795 4.13525 13.8951 4.13525 11.4958C4.13525 9.09659 4.14388 8.81358 4.18691 7.86645C4.22698 6.99047 4.37334 6.51502 4.49633 6.19832C4.65922 5.77902 4.85418 5.47957 5.16872 5.16512C5.48318 4.85066 5.78262 4.65597 6.20193 4.49282C6.51862 4.36928 6.99426 4.22328 7.87023 4.18303C8.69904 4.14557 9.02023 4.13434 10.6947 4.13245V4.1347ZM16.2965 5.62646C15.7013 5.62646 15.2184 6.10893 15.2184 6.70423C15.2184 7.29945 15.7013 7.78236 16.2965 7.78236C16.8917 7.78236 17.3746 7.29945 17.3746 6.70423C17.3746 6.10902 16.8917 5.62611 16.2965 5.62611V5.62646ZM11.5006 6.88616C8.95267 6.88616 6.8868 8.95203 6.8868 11.5001C6.8868 14.0481 8.95267 16.113 11.5006 16.113C14.0487 16.113 16.1138 14.0481 16.1138 11.5001C16.1138 8.95212 14.0485 6.88616 11.5005 6.88616H11.5006ZM11.5006 8.50524C13.1546 8.50524 14.4955 9.84598 14.4955 11.5001C14.4955 13.154 13.1546 14.4949 11.5006 14.4949C9.84662 14.4949 8.50588 13.154 8.50588 11.5001C8.50588 9.84598 9.84662 8.50524 11.5006 8.50524Z" fill="white"/>
</g>
<defs>
<radialGradient id="paint0_radial_5_103" cx="0" cy="0" r="1" gradientUnits="userSpaceOnUse" gradientTransform="translate(6.10921 24.7714) rotate(-90) scale(22.7947 21.2009)">
<stop stop-color="#FFDD55"/>
<stop offset="0.1" stop-color="#FFDD55"/>
<stop offset="0.5" stop-color="#FF543E"/>
<stop offset="1" stop-color="#C837AB"/>
</radialGradient>
<radialGradient id="paint1_radial_5_103" cx="0" cy="0" r="1" gradientUnits="userSpaceOnUse" gradientTransform="translate(-3.85276 1.65681) rotate(78.681) scale(10.1894 42.0009)">
<stop stop-color="#3771C8"/>
<stop offset="0.128" stop-color="#3771C8"/>
<stop offset="1" stop-color="#6600FF" stop-opacity="0"/>
</radialGradient>
<clipPath id="clip0_5_103">
<rect width="23" height="23" fill="white"/>
</clipPath>
</defs>
</svg>
