<svg width="10" height="15" viewBox="0 0 10 15" fill="none" xmlns="http://www.w3.org/2000/svg">
<path d="M0.544156 0.808162C0.323791 1.00554 0.199997 1.2732 0.199997 1.55229C0.199997 1.83138 0.323791 2.09904 0.544156 2.29641L6.36269 7.50635L0.544156 12.7163C0.330036 12.9148 0.211556 13.1807 0.214234 13.4566C0.216913 13.7326 0.340534 13.9966 0.558474 14.1917C0.776414 14.3869 1.07123 14.4976 1.37944 14.5C1.68764 14.5024 1.98456 14.3963 2.20626 14.2045L8.85584 8.25048C9.0762 8.05311 9.2 7.78544 9.2 7.50635C9.2 7.22727 9.0762 6.9596 8.85584 6.76223L2.20626 0.808162C1.98583 0.610846 1.6869 0.5 1.37521 0.5C1.06352 0.5 0.764587 0.610846 0.544156 0.808162Z" fill="white"/>
</svg>
