<svg width="14" height="14" viewBox="0 0 14 14" fill="none" xmlns="http://www.w3.org/2000/svg">
<path d="M7.47271 0.306856L9.04313 4.05816C9.1022 4.19934 9.19637 4.32132 9.31581 4.41138C9.43525 4.50144 9.57558 4.55627 9.72216 4.57015L13.5479 4.92939C13.9807 4.99538 14.1534 5.55135 13.8395 5.8715L10.9577 8.40699C10.7244 8.61227 10.6182 8.93486 10.6824 9.24645L11.5201 13.3533C11.5936 13.8042 11.1421 14.1488 10.7547 13.935L7.41554 11.887C7.2896 11.8096 7.14621 11.7688 7.00018 11.7688C6.85415 11.7688 6.71077 11.8096 6.58483 11.887L3.24565 13.9338C2.85946 14.1464 2.40677 13.803 2.48028 13.3521L3.31799 9.24523C3.38099 8.93364 3.27599 8.61105 3.04264 8.40577L0.159653 5.87272C-0.15303 5.5538 0.0196459 4.9966 0.451336 4.93062L4.27704 4.57137C4.42362 4.55749 4.56395 4.50266 4.68339 4.4126C4.80283 4.32255 4.89701 4.20056 4.95608 4.05938L6.52649 0.308078C6.72134 -0.102489 7.27903 -0.102489 7.47271 0.306856Z" fill="#FDD835"/>
</svg>
