<svg width="20" height="20" viewBox="0 0 20 20" fill="none" xmlns="http://www.w3.org/2000/svg">
<path d="M10.6753 0.438365L12.9188 5.79737C13.0031 5.99906 13.1377 6.17332 13.3083 6.30197C13.4789 6.43063 13.6794 6.50896 13.8888 6.52878L19.3541 7.04199C19.9725 7.13625 20.2191 7.9305 19.7708 8.38785L15.6539 12.01C15.3205 12.3032 15.1689 12.7641 15.2605 13.2092L16.4573 19.0762C16.5623 19.7203 15.9172 20.2126 15.3639 19.9071L10.5936 16.9815C10.4137 16.8709 10.2089 16.8126 10.0003 16.8126C9.79165 16.8126 9.58681 16.8709 9.4069 16.9815L4.63664 19.9054C4.08495 20.2091 3.43825 19.7186 3.54325 19.0745L4.73998 13.2075C4.82999 12.7623 4.67998 12.3015 4.34663 12.0082L0.228076 8.3896C-0.218614 7.934 0.0280655 7.138 0.644765 7.04374L6.11006 6.53053C6.31945 6.5107 6.51993 6.43238 6.69056 6.30372C6.86119 6.17507 6.99572 6.0008 7.08011 5.79912L9.32356 0.440111C9.60191 -0.146412 10.3986 -0.146412 10.6753 0.438365Z" fill="#FDD835"/>
</svg>
